<svg width="948" height="968" viewBox="0 0 948 968" fill="none" xmlns="http://www.w3.org/2000/svg">
<path d="M206.841 265.64L207.542 275.152L204.459 287.516L199.414 298.115L193.247 307.762L190.066 311.007L184.418 314.964L172.927 319.855L164.697 323.114L149.103 334.666C149.103 334.666 136.95 339.063 135.761 339.063C134.572 339.063 107.42 345.788 107.42 345.788L93.3482 356.357L80.0694 380.185L73.1327 399.016L65.4032 410.162L65.205 424.189L67.3851 434.181L76.8983 440.715L78.0875 472.037L76.8983 487.794L75.7092 518.539L75.511 531.414L72.1417 536.602L72.5381 546.787L74.52 572.921L73.1327 592.136L65.205 624.035L56.0882 642.098L49.3497 656.702L38.0528 678.224L33.2962 705.895L30.1251 743.75L29.7287 769.692L29.3323 790.637L27.739 800.045L18.7699 803.578L8.11908 807.926L1.18916 812.735L0 832.336L8.11908 839.178L17.6488 844.341L16.5276 858.2L15.1262 882.93L14.8459 910.649L11.2022 950.053L10.3613 966.63L31.3827 966.902L74.9164 967.232H102.663H183.922L192.642 956.471L190.264 933.412L211.746 918.258L207.962 882.115L204.879 866.625L197.592 835.917L213.849 837.14H221.38L219.398 851.36L217.614 867.501L216.425 889.407L216.651 897.061L225.938 841.175L250.118 803.512L267.558 759.699L272.315 738.946V725.495L260.82 713.966L261.216 702.052L260.027 692.059L263.595 683.22L273.504 674.765L276.675 672.843L289.36 636.717L302.044 617.501L319.088 607.894L340.889 603.282L333.754 596.364L342.871 574.074L347.628 551.399L349.213 546.403H351.195L362.119 542.422L364.361 592.425L370.618 587.14L380.618 582.913L387.905 578.566L417.896 558.999L423.642 553.428L422.941 513.352L418.58 476.841L421.752 451.092L426.046 417.639L420.571 411.772L389.159 360.64L385.284 351.553L375.771 343.483L367.843 328.11L338.511 315.427L319.236 303.822L303.82 262.243L297.093 262.515L286.442 259.798L273.549 259.254L243.278 259.798L219.174 261.971L211.886 267.407L206.841 265.64Z" fill="#BCA1CC"/>
<path d="M164.697 323.114L184.419 314.964L190.066 311.007L189.471 317.925L186.3 325.996L175.796 333.682L163.112 347.326L164.238 356.542L170.404 370.13L183.129 373.844L164.799 374.75L152.188 380.945L137.209 383.432L132.286 387.522L126.68 371.76L126.4 355.183L138.031 343.905L149.103 334.666L156.53 329.638L164.697 323.114Z" fill="#381F15"/>
<path d="M692.612 331.581L691.245 347.885L688.392 366.852L679.426 383.448L657.826 395.698L650.083 406.762L640.301 425.333L634.596 435.212L627.667 448.647L626.445 463.662L628.483 474.726L629.705 511.475L628.075 528.466L624.407 549.013L622.369 559.682L643.969 570.351L649.675 574.302L671.275 575.883L695.32 550.199L702.656 564.029L737.857 597.578L734.338 632.101C735.782 646.257 741.505 652.297 736.991 666.454C737.863 671.067 759.052 681.612 754.007 679.015L754.822 693.241L748.302 709.837L744.226 722.481L750.747 743.029L757.268 765.947L755.637 769.898L766.234 792.026L791.502 848.137L797.222 873.634L805.291 912.751L813.36 954.103L823.734 967.515L937.498 966.956L912.1 936.062L899.319 906.921L871.29 865.614L857.524 804.671L872.196 799.139L873.826 783.334L873.011 765.157L892.573 750.141L924.362 728.804L939.849 708.256L948 684.548L940.664 660.049L934.958 634.76L920.287 611.841L911.32 594.455L907.245 577.859L888.498 525.7L904.8 500.411L908.875 468.009L893.474 447.815L860.621 431.051L837.567 422.11L815.665 405.345H808.749L796.645 386.345L781.66 367.346L778.053 339.192L752.377 326.943L723.448 325.713L692.612 331.581Z" fill="#C54727" fill-opacity="0.954774"/>
<path d="M700.393 249.994L703.275 274.023C704.702 291.554 704.484 295.535 704.428 300.846L700.105 313.699C726.604 310.425 745.214 312.265 771.286 315.375L771.862 311.464C777.116 313.035 782.238 314.691 789.729 314.817L796.357 308.67L814.801 292.464L831.227 278.494L839.296 265.082L844.483 246.082L851.976 227.082C849.134 209.496 840.606 195.356 831.803 180.142L831.227 206.965L829.498 225.965C827.96 233.229 826.113 240.494 826.04 247.759L817.971 224.288L809.325 198.024L802.409 170.642L797.798 146.613L788 173.436L784.542 189.083L782.236 154.436L754.571 182.377L739.01 200.818L732.381 209.2L734.975 188.524L742.468 169.524C732.465 177.718 724.806 186.291 719.413 195.23L716.531 205.288L717.207 217.842L714.803 228.2L715.379 237.141L709.615 225.965L705.58 210.318L699.241 224.847L698.088 208.083L695.206 198.024L684.255 195.23C680.221 196.161 676.186 198.21 672.152 201.377C670.545 206.406 668.657 211.436 669.27 216.465L668.694 232.112L675.034 238.817L686.561 248.876L695.206 252.229L700.393 249.994Z" fill="#F5CCBA"/>
<path d="M700.105 313.699L731.486 312.118L692.324 313.559L688.722 316.074L685.119 322.36L684.399 327.669L687.425 329.765L692.612 331.581L708.004 329.346L723.728 328.703C745.16 327.78 738.275 326.423 738.049 327.375L752.377 326.942L761.877 331.876L774.792 337.611C778.948 339.627 778.596 339.456 778.052 339.192L784.573 335.438L785.388 328.72L781.313 323.188L771.285 315.375C746.99 312.813 721.836 310.106 700.105 313.699V313.699Z" fill="#3C2B60"/>
<path d="M710.4 450.623L698.988 458.525L696.951 468.404L699.396 477.888L699.803 481.246L702.045 485.395L706.528 486.778L710.807 486.383L715.698 484.21L718.55 481.049L721.607 475.714L724.256 472.158L725.275 464.848L724.664 458.921L720.181 451.808L716.513 450.82L710.4 450.623Z" fill="#382924"/>
<path d="M638.435 429.095L641.605 435.242L641.893 442.506V452.286L639.875 458.153L637.282 465.138L631.95 471.285L627.916 469.888L626.445 463.662L627.667 448.647L631.662 440.551L638.435 429.095Z" fill="#382924"/>
<path d="M799.652 550.792L792.113 558.299L791.705 568.573L795.577 574.698L801.283 580.427L813.509 581.02L823.29 572.722L823.901 561.855L819.418 553.36L813.713 549.013L800.671 549.408L799.652 550.792Z" fill="#382924"/>
<path d="M875.237 566.093L872.931 588.725L872.213 632.107L864.072 667.455C857.666 693.859 850.946 696.896 837.197 711.106C847.628 711.543 858.058 711.979 868.489 712.416L898.867 704.401L912.412 694.062L921.922 677.857C920.957 664.172 918.263 651.047 917.298 637.363L891.355 594.543L875.237 566.093Z" fill="#382924"/>
<path d="M808.556 433.006L788.387 433.295L775.857 437.343L765.467 448.62L760.272 458.739L756.3 474.063L758.439 492.568L768.829 508.181L791.748 522.927L812.834 524.373L833.92 518.301L847.061 506.736L856.84 489.098L857.451 466.835L851.95 460.185L833.003 453.824L826.28 448.33L808.556 433.006Z" fill="#DB6F29"/>
<path d="M868.69 435.521L878.2 448.933L880.505 460.668C879.16 463.09 879.833 465.79 878.488 468.212L875.606 476.315L879.064 484.138L883.387 496.432L887.422 503.418L888.862 510.961L888.498 525.7L901.254 505.653L904.8 500.411L906.73 486.932L908.875 468.009L893.474 447.815L868.69 435.521Z" fill="#DB6F29"/>
<path d="M791.502 760.81L800.875 756.068L813.917 752.907L824.105 754.883L835.109 758.439L842.445 770.294L846.928 779.382L847.743 788.865L843.668 798.349L836.332 810.203L858.339 809.808C866.025 805.189 863.727 807.874 872.196 799.139L873.826 783.334L873.011 765.157L861.396 747.178L838.981 728.013L824.513 721.098L813.509 727.026L805.766 733.743L797.819 741.646L789.26 752.512L791.502 760.81Z" fill="#D7522B"/>
<path d="M732.815 343.144V359.344C733.404 360.901 736.442 362.134 743.003 362.901L756.045 361.32L757.268 352.627L754.822 347.49L744.634 347.885L732.815 343.144Z" fill="#382924"/>
<path d="M759.305 330.104L762.566 341.069L764.094 352.528L766.539 361.518C770.658 363.086 770.787 362.721 771.837 362.802L773.773 359.147L772.041 351.639L771.124 343.539L775.403 340.378L778.052 339.192L759.305 330.104Z" fill="#382924"/>
<path d="M746.06 389.771L757.879 395.302L770.92 398.068L776.218 396.883L795.781 414.269L801.486 419.011L806.173 416.047C810.158 399.488 808.697 405.56 808.748 405.345H815.665L837.566 422.11L835.109 432.841L834.701 439.163L815.139 427.309L802.505 422.172L784.981 416.245L765.418 414.269L746.06 389.771Z" fill="#768941"/>
<path d="M762.64 76.2017L741.315 97.4367C715.829 95.3547 706.513 105.467 699.817 117.554C672.33 123.813 679.35 138.038 671.575 148.848L668.693 157.23L677.915 149.407C643.647 153.388 665.318 160.19 672.728 176.789C680.544 171.328 693.847 171.187 690.019 154.436C697.34 153.78 711.642 162.148 704.428 142.701L696.359 185.73C696.366 192.489 692.551 194.579 698.088 208.083L699.24 224.847L705.58 210.318L709.615 225.965L715.378 237.141L714.802 228.2L717.207 217.842L716.531 205.288L719.413 195.23L742.467 169.524L734.975 188.524L732.381 209.2L754.571 182.377L782.236 154.436L784.542 189.083L788 173.436L797.798 146.613C799.501 164.995 803.791 181.871 809.325 198.024L826.04 247.759L829.498 225.965C831.757 210.104 831.54 195.217 831.803 180.142L843.619 201.097L851.975 227.082L863.791 254.464L869.843 244.685L873.419 226.576L876.272 241.592L882.792 223.02L884.422 213.141L894.204 237.245L898.279 209.19L893.388 156.636C901.337 166.91 909.111 177.183 912.543 187.457L913.856 202.425C914.834 197.601 915.965 193.225 916.211 186.272C912.346 173.232 902.29 160.192 895.019 147.153L883.2 136.484V128.186L870.158 118.702L866.49 107.243L844.89 94.9935L828.181 91.8324L805.766 79.9781L784.981 85.9053L762.64 76.2017Z" fill="#B85D23"/>
<path d="M672.151 201.377C659.455 195.016 650.662 188.364 647.944 181.259L630.292 174.803L632.383 139.348L632.959 130.407L638.146 132.642L639.875 116.995L650.826 113.084L660.624 95.7603L681.373 91.8486L710.191 79.5546L733.245 71.1724L764.657 69.4958L780.219 71.1724L797.798 76.4812L812.783 75.0841L826.904 84.3046L828.18 91.8324C816.739 93.8677 810.531 88.0107 805.765 79.9782C801.23 88.9136 793.177 87.6188 784.98 85.9053C774.347 87.8193 769.022 81.1559 762.64 76.2017C757.377 86.7032 748.537 90.8384 741.314 97.4367L699.816 117.554L671.575 148.848L668.693 157.23L677.915 149.407L672.728 176.789L690.018 154.436L704.427 142.701L695.205 198.024L684.255 195.23C680.643 196.387 669.423 202.955 672.151 201.377V201.377Z" fill="#B85D23"/>
<path d="M687.713 89.6133L674.169 80.9517L665.812 79.8341L646.215 73.9665L634.112 84.584L626.043 101.069L621.432 112.525L623.161 117.834L630.654 118.951L639.299 123.981L639.875 116.995L650.826 113.084L660.624 95.7603L681.373 91.8486L687.713 89.6133Z" fill="#E34722"/>
<path d="M621.432 112.525L598.731 112.775L584.875 113.565L577.131 115.936H594.248L612.995 117.121L590.173 122.654L573.871 134.508L567.758 145.967L579.577 136.879L592.618 129.371L603.622 125.419H615.441L594.248 140.04L585.282 152.289L574.278 172.442L572.648 182.715L581.207 171.256L591.395 158.612L602.399 149.918L592.21 176.788L588.543 198.521L593.841 191.013L592.618 211.561L595.878 231.713L601.177 238.826L613.811 261.744L620.739 286.638L620.331 315.484L613.403 338.402L609.328 347.49L608.513 352.232L612.588 361.715L610.143 373.174L604.03 385.029L593.433 390.956L581.207 400.044L569.388 405.971L565.72 419.801L564.905 443.51L558.792 456.55L553.494 463.662L568.165 456.55L566.943 476.307L569.796 466.033L574.279 495.669L577.131 517.007L582.837 528.861L586.097 505.943L596.694 537.554L606.882 547.433L599.954 530.046L600.769 507.128L610.55 542.296L618.701 552.174L613.403 525.305L623.999 547.433L628.075 528.466L629.705 511.475L628.482 474.726L626.445 463.662L627.667 448.647L638.434 429.095L650.082 406.762L657.826 395.698L679.426 383.448L688.392 366.852L691.245 347.885L692.612 331.581L684.399 327.669L685.12 322.36L688.722 316.074L692.324 313.559L700.105 313.699L704.428 300.846C707.322 285.266 703.864 267.632 700.393 249.994L695.206 252.229L686.561 248.876L668.694 232.112L669.27 216.465L672.151 201.377L647.944 181.26L635.841 160.583L632.383 139.348C634.695 135.98 643.769 131.377 632.959 130.407L638.146 132.642C640.458 130.69 659.524 136.859 639.299 123.981L630.654 118.951L623.161 117.834L621.432 112.525Z" fill="#B85D23"/>
<path d="M471.578 448.374L491.174 448.932L506.736 444.462L526.332 431.609L544.776 415.962L557.456 397.521L569.388 405.971L581.207 400.044L593.433 390.956L604.029 385.028L610.143 373.174L612.588 361.715L609.328 347.49L594.919 346.669L578.781 363.992L583.968 341.64L584.544 322.64L577.628 327.11L580.51 306.434L578.204 291.346L574.746 317.052L570.712 305.317L565.524 280.729L562.643 298.052L559.761 282.964L551.115 258.376L546.505 287.434L543.623 289.111L541.317 264.523L533.825 247.758L525.179 235.464L517.687 260.052L507.888 277.934L505.007 280.17L510.77 258.376L502.701 275.14L494.056 248.876V223.17L488.292 253.905L487.716 280.17L480.8 263.405L480.224 237.7L466.391 270.67L462.357 273.464L470.426 241.611L472.731 218.141L457.169 233.229L442.184 258.935L431.81 278.493L432.962 255.023L442.184 236.023L436.421 242.729L426.622 257.258L411.637 290.787L407.026 314.258L402.992 284.081L407.026 249.994L391.465 275.699L385.701 297.493L386.854 325.993L382.819 301.405L381.09 269.552L375.903 290.228L377.632 317.052L384.548 343.316L393.194 375.727L403.568 396.404L426.046 417.639L453.135 439.991L471.578 448.374Z" fill="#F5C4AB"/>
<path d="M389.159 360.64L380.514 367.904V383.551L386.854 396.963L403.568 407.58L420.571 411.771L403.568 396.404C403.275 390.739 401.124 384.354 393.194 375.727C393.927 371.274 393.75 366.568 389.159 360.64V360.64Z" fill="#F5C4AB"/>
<path d="M544.776 415.962L545.954 431.063L548.196 449.832L549.418 470.379L530.079 464.579L511.059 463.462L496.074 466.256L459.962 476.702H454.256L455.886 468.009L456.09 458.328L453.135 439.991C460.636 441.801 466.218 445.007 471.578 448.374C477.169 446.963 483.418 446.668 491.175 448.932C494.629 446.882 498.473 444.958 506.736 444.462C511.054 438.643 518.236 434.809 526.333 431.609C530.168 425.272 537.849 420.8 544.776 415.962V415.962Z" fill="#F5C4AB"/>
<path d="M454.256 476.702L446.795 472.962L436.709 482.741L432.098 489.168L434.98 498.947L440.167 502.859L447.948 497.27L456.593 500.623L454.864 515.991L457.169 530.52L460.916 531.638H465.815L469.273 526.888L471.002 515.991L472.155 500.623L477.342 491.962L491.759 488.57L512.788 481.903L528.062 481.624L541.03 484.138L551.116 488.888L563.22 500.344L564.66 505.094L566.101 509.844L569.271 498.947L569.559 490.285L557.456 475.197L549.418 470.38L530.079 464.579L511.059 463.462L496.074 466.256L459.962 476.702L454.256 476.702Z" fill="#CD532E"/>
<path d="M440.167 502.859L447.948 497.27L456.593 500.623L454.864 515.991L457.169 530.52L465.815 531.638L469.273 526.888L472.155 500.623L477.342 491.962L512.788 481.903L528.062 481.624L541.03 484.138L551.116 488.888L563.219 500.344L566.101 509.844L567.288 506.007L568.839 510.822L574.686 529.651L587.468 537.938L608.512 552.57L622.369 559.682L649.675 574.303L671.275 575.883L692.856 582.098L714.157 599.49L727.611 615.252L734.338 632.101L740.224 653.026L740.504 670.69L754.007 679.016L754.822 693.241L744.226 722.481L755.637 769.899L775.721 813.888L791.501 848.137L805.054 913.427L813.359 954.104L823.734 967.515L663.545 968L638.177 895.748L644.519 831.183L654.825 798.131L649.672 793.135L639.366 817.347L628.663 835.026L607.259 850.399L595.367 868.077L572.377 878.069L540.27 888.062L497.064 897.285L462.182 907.278L450.291 903.435V885.756V860.391L453.462 854.242L485.173 845.018L495.815 836.46L501.701 823.416L499.459 812.817L478.437 792.708L463.022 777.218L452.669 754.319L447.886 733.737L440.038 724.497C434.286 716.701 427.377 709.546 414.308 705.804C414.308 705.804 404.734 706.227 402.492 706.227C400.25 706.227 388.217 712.897 388.217 712.897L383.281 729.525C383.281 729.525 368.846 737.541 366.043 738.628C363.24 739.715 322.259 758.162 322.259 758.162L312.35 771.229L311.668 804.393L308.865 817.981L309.425 850.048L295.411 851.135L271.307 894.072L248.323 946.248L236.244 966.463L183.922 967.231L192.642 956.471L190.264 933.411L216.425 914.964L216.651 897.061L225.938 841.175L237.433 823.112L250.118 803.511L267.558 759.699L272.315 738.946V725.495L260.82 713.965L261.216 702.051L260.027 692.059L263.595 683.22L273.504 674.765L276.675 672.843L289.359 636.717L302.044 617.501L319.088 607.893L340.889 603.282L360.51 595.211L370.618 587.14L380.618 582.913L387.905 578.565L406.684 565.249L417.896 558.999L436.42 540.579L441.607 533.035L441.896 522.138L440.167 502.859Z" fill="#C3C6DD"/>
<path d="M496.362 515.432L497.515 528.285C503.17 531.783 521.721 529.03 533.825 529.402L537.283 528.285L533.249 508.167L517.111 508.727L496.362 515.432Z" fill="#4D3845"/>
<path d="M441.896 522.138L449.965 524.932L450.541 530.8L445.354 538.623L436.42 540.579L441.607 533.035L441.896 522.138Z" fill="#4D3845"/>
<path d="M566.101 509.844L569.848 526.888L554.574 531.358L560.338 543.652L579.646 573.828L586.85 581.652L587.32 608.68L560.014 605.519L541.267 608.68L534.339 614.607L530.263 625.276L538.822 645.033L549.418 654.912L569.795 668.742L578.354 674.669H584.875L610.142 721.296L615.848 742.634L613.81 757.254L606.067 777.801L600.769 793.212L599.139 805.066L626.037 797.163L642.746 783.333L659.456 735.126L670.052 710.627L671.682 697.982L668.829 687.314L657.01 666.766L644.376 650.96L629.705 638.711L595.878 613.817L598.324 593.664L599.139 585.366L584.875 573.907L575.908 559.682L567.35 547.037L562.867 535.578L566.942 532.022L574.686 529.651L573.161 522.836L568.839 510.822L566.101 509.844Z" fill="#4D3845"/>
<path d="M574.686 529.651L599.75 546.84L595.471 549.804V553.36L600.158 555.138L615.237 576.673L619.516 581.415L634.595 593.467L643.154 600.382L643.561 615.397L637.856 635.945L631.335 639.106L630.316 639.501L644.376 650.96L647.229 643.452L650.082 631.598L651.712 615.792V599.591L635.003 589.713L620.739 577.464L607.697 560.077L604.029 553.36L608.512 552.569L574.686 529.651Z" fill="#4D3845"/>
<path d="M436.42 540.579L425.464 560.901L405.283 584.272L390.148 598.947L376.694 606.556L371.088 631.014L368.285 638.623L374.452 638.08L375.012 647.319L367.164 660.907L336.133 688.985L321.863 708.969L313.935 732.797L310.764 755.856L312.35 771.229L312.789 784.283L311.668 804.393C311.081 809.595 309.966 813.776 308.865 817.981C308.821 816.692 315.685 831.387 315.872 836.868L309.425 850.048L299.177 852.48L283.639 874.506L271.307 894.072L265.701 912.551L248.323 946.249C244.597 952.987 242.004 959.724 236.244 966.462L183.922 967.232L192.642 956.471L190.264 933.412L205.326 922.651L216.425 914.964L229.109 881.144L237.037 879.607L246.55 861.16L252.892 845.018L265.576 827.34L288.567 791.214L295.702 766.617L290.646 760.369L288.124 750.858L287.283 736.183L290.366 727.487L297.934 716.073L302.979 706.29L303.539 690.8L308.585 680.473L316.713 663.624L321.197 661.179L320.917 651.396L324.561 638.623L327.083 626.666L328.204 618.785L338.855 611.991L350.067 607.643L359.316 603.567L369.126 597.316L380.618 582.913L387.905 578.565L384.262 584.272L378.936 592.153L370.247 601.121L356.513 608.187L344.181 613.35L339.416 619.6L334.651 629.383L332.128 639.71L329.886 651.667L331.848 652.483L341.378 647.863L355.392 641.341L359.877 637.264L362.119 629.112L366.043 614.709L368.566 607.643L371.649 604.382L386.224 596.773L393.231 590.523L409.767 573.946L415.934 565.249L417.896 558.999L436.42 540.579Z" fill="#493944"/>
<path d="M628.664 835.026L607.259 850.399L595.367 868.077L572.377 878.069L554.144 906.509L547.668 914.182L544.865 929.4L496.272 951.09L474.074 965.694H508.956L534.324 951.859L542.252 953.396L537.578 966.359H579.621L582.984 948.966L591.393 927.226L600.922 899.507L613.255 877.767L616.618 863.635L628.664 835.026Z" fill="#372720"/>
<path d="M659.456 735.126L642.747 783.333L677.721 838.634L719.203 903.855L732.657 935.379L726.571 967.232L785.632 966.847L792.767 948.784L798.712 931.49L799.505 907.662L803.072 902.666L791.502 848.137L791.181 871.152L779.744 853.852L776.381 850.591L776.941 870.701L770.775 874.506L766.851 872.332L737.141 838.634L700.704 802.219L681.084 777.218L668.751 759.282L659.456 735.126Z" fill="#372720"/>
<path d="M750.594 750.586L738.822 745.151L736.019 753.303L741.064 770.695L747.231 790.262L762.927 808.741L770.214 838.634L774.418 857.657L776.941 870.701L776.38 850.591L772.176 833.199L770.214 819.611L766.29 809.013L759.283 798.686L748.912 786.729L744.148 772.054L740.504 757.923L744.708 756.292L751.715 763.086L755.637 769.898C762.396 761.444 748.081 738.281 744.226 722.481L750.594 750.586Z" fill="#372720"/>
<path d="M701.264 631.014L695.098 629.927L688.371 632.373L685.008 636.177L681.084 640.797L678.841 647.047L679.962 656.287L685.008 663.081L691.734 667.157L699.863 669.331L708.271 667.429L713.316 664.44L717.24 657.102L718.922 650.037L718.081 644.33L713.316 637.808L709.392 634.547L704.347 632.373L702.105 631.557L701.264 631.014Z" fill="#493644"/>
<path d="M508.989 822.872L507.307 788.631L511.231 779.935L525.245 771.239L544.865 757.651L557.758 750.586L567.288 739.172L577.378 726.671L587.469 714.171L590.271 708.735L593.635 709.279L597.559 720.149L603.725 732.65L604.846 735.367L599.241 732.106L590.832 732.649L586.347 741.346L576.818 754.39L562.243 767.434L546.547 780.478L537.017 787.544L525.806 795.153L520.2 798.414L515.716 812.545L508.989 822.872Z" fill="#CD532E"/>
<path d="M649.672 793.135L628.663 835.026L613.254 877.767C610.299 885.944 609.944 913.817 610.43 911.89L615.979 937.255L623.907 967.231H726.57L732.656 935.379C722.826 898.232 676.051 839.117 649.672 793.135V793.135Z" fill="#C24626"/>
<path d="M378.144 732.304L388.217 712.897L397.891 707.852L402.205 706.087L414.309 705.804C424.736 709.119 433.826 714.542 440.038 724.497L442.281 739.036L441.72 748.14L440.88 754.255C439.308 758.408 436.193 759.57 433.172 760.913L425.184 752.081L417.196 740.123L402.901 728.574L394.913 727.079L387.625 728.71L378.144 732.304Z" fill="#574A2F"/>
<path d="M387.625 728.709L393.511 719.742L397.155 715.394L404.863 714.171L412.01 714.306L418.737 716.209L424.763 721.78L429.528 727.079L430.789 731.97L431.209 741.618L430.649 748.276L425.184 752.08L419.858 744.063L417.195 740.123L402.901 728.574L387.625 728.709Z" fill="#4D4128"/>
<path d="M508.956 965.694L534.324 951.859L542.252 953.396L537.578 966.359L508.956 965.694Z" fill="#48346A"/>
<path d="M450.291 903.435L438.357 912.551L429.948 927.769L423.782 937.009L416.789 946.495L410.13 958.425L405.283 966.63L474.074 965.694L496.272 951.09L544.865 929.4L547.668 914.182L554.144 906.509L572.377 878.069L540.27 888.062L497.064 897.285L462.183 907.278L450.291 903.435Z" fill="#48346A"/>
<path d="M450.129 887.821L435.834 898.148L429.387 908.475L422.941 919.888L416.214 928.856L415.653 933.204L410.889 939.455L404.722 949.238L399.958 954.673L396.594 962.554L394.072 966.359L405.283 966.63L416.789 946.495L423.782 937.009L429.948 927.769L438.357 912.551L450.291 903.434L450.129 887.821Z" fill="#372720"/>
<path d="M485.445 802.762L444.517 833.226L436.675 842.982C435.507 849.351 434.149 855.681 432.751 862.005L414.813 872.332L396.314 900.594L392.951 910.377L393.511 922.878L383.421 942.444L375.573 954.402L365.862 966.463L394.072 966.358L415.654 933.204L431.661 905.74L435.834 898.148L450.129 887.821L450.291 860.39L453.462 854.241L485.173 845.018L495.815 836.459L501.701 823.415L499.459 812.817L485.445 802.762Z" fill="#48346A"/>
<path d="M436.675 842.982C437.947 837.068 437.621 835.284 440.879 824.231L454.894 813.904L472.271 801.947L469.749 791.077L459.659 782.109L453.492 765.804L450.129 744.064L440.778 730.299L440.039 724.497L447.887 733.737L452.67 754.319L463.022 777.218L483.203 797.192L499.459 812.817L485.445 802.762L436.675 842.982Z" fill="#372720"/>
<path d="M440.879 824.231L435.03 812.543L434.634 799.861L430.868 790.253L425.913 782.951L422.742 765.464L433.171 760.912C435.69 759.27 438 757.325 440.879 754.254L442.28 739.036L440.778 730.299L450.128 744.064L452.669 754.319L453.492 765.804L459.658 782.109L469.748 791.077L472.271 801.947L440.879 824.231Z" fill="#48346A"/>
<path d="M236.244 966.463L248.323 946.248C253.127 934.803 257.645 923.296 265.701 912.551L275.511 930.759C283.12 939.092 286.91 947.426 292.608 955.76L297.373 960.38L314.19 961.467L333.53 962.282L347.264 966.63L236.244 966.463Z" fill="#48346A"/>
<path d="M271.307 894.072L265.701 912.551L275.511 930.759C282.797 940.64 289.137 953.985 297.374 960.38L333.53 962.282L347.264 966.63L365.862 966.463C376.175 954.625 379.23 949.023 383.421 942.445L307.593 947.632L281.432 909.2L271.307 894.072Z" fill="#372720"/>
<path d="M312.795 847.165L299.177 852.48C286.102 866.344 279.39 880.208 271.307 894.072C282.429 912.303 292.898 930.787 307.593 947.632L383.421 942.444C389.841 936.769 392.288 929.993 393.511 922.878C395.156 919.777 395.042 915.652 392.95 910.377L383.302 896.517L375.375 902.666L369.032 911.505L336.925 921.113L312.746 897.67L303.233 882.297L309.179 870.383L311.953 863.081L312.795 847.165Z" fill="#48346A"/>
<path d="M433.172 760.913L417.196 740.123C414.198 736.273 408.425 732.424 402.901 728.574C396.748 726.246 391.927 726.898 387.625 728.71L378.144 732.304L322.259 758.162L312.35 771.229L311.668 804.393L308.865 817.981L309.426 850.048L311.954 863.081L303.233 882.297C305.842 887.499 305.443 893.118 312.746 897.67C319.401 906.393 325.909 915.21 336.926 921.113C348.922 920.001 359.267 916.221 369.033 911.505L383.302 896.517L394.401 883.45L399.951 868.462L407.482 859.622L410.257 852.705L426.112 842.328L425.319 852.705L414.22 860.391L404.311 869.615L414.813 872.332C421.467 870.361 428.918 870.129 432.751 862.005C433.875 857.094 433.556 863.368 436.675 842.982L440.879 824.231L432.652 815.81L424.526 814.849L415.608 819.461L403.914 822.536L393.212 826.571L376.762 825.226L409.067 819.077L421.157 812.543L430.472 809.469L434.634 799.861L430.868 790.253L374.978 803.704L362.294 797.363L374.582 798.9L416.995 786.986L425.913 782.951L422.742 765.464L433.172 760.913Z" fill="#4D2F75"/>
<path d="M383.302 896.517L394.401 883.45L396.383 876.916L399.95 868.461L407.482 859.622L410.256 852.704L426.112 842.328L425.319 852.704L414.22 860.391L404.311 869.614L414.813 872.331L396.314 900.594L392.95 910.377L383.302 896.517Z" fill="#372720"/>
<path d="M351.988 772.766L374.978 762.39L386.87 757.778L396.779 759.699C395.944 754.824 399.234 753.148 400.743 750.091L409.86 760.084C406.258 762.713 402.428 765.057 395.194 763.158C390.288 764.228 385.875 765.995 378.942 766.617L369.429 770.076L351.988 772.766Z" fill="#372720"/>
<path d="M362.294 797.363L374.582 798.9L397.969 791.598L416.995 786.986L425.913 782.951L430.868 790.253L419.968 793.904L401.536 798.324L374.978 803.704L362.294 797.363Z" fill="#2B1A24"/>
<path d="M376.762 825.226L393.212 826.571L403.914 822.535L415.607 819.461L424.526 814.849L432.652 815.81L440.879 824.231L435.03 812.543L434.634 799.861L430.472 809.469L421.157 812.543L412.238 817.155L409.067 819.077L393.509 821.863L376.762 825.226Z" fill="#2B1A24"/>
<path d="M546.216 436.103L544.776 415.962L557.456 397.521L567.008 404.371L561.542 408.583L558.319 427.062L555.936 415.513L551.312 418.91L546.216 436.103Z" fill="#312323"/>
<path d="M303.82 262.243L314.827 290.35L319.236 303.822L338.511 315.427L348.619 332.337L369.627 344.635L372.91 345.808L375.433 350.02L375.853 355.863L374.592 361.841L374.031 370.266L380.514 383.551L370.024 374.036L347.232 364.908L339.136 365.374L340.958 349.612L340.537 336.296L330.782 330.8L317.503 314.658L308.188 290.446L303.035 275.266L297.093 262.515L303.82 262.243Z" fill="#381F15"/>
<path d="M319.235 303.822L324.561 315.779L329.326 325.018L346.24 337.429L347.727 349.824L347.231 364.908L359.916 370L366.456 372.498L370.023 374.036V358.279L369.627 344.635L361.105 338.871L348.619 332.337L338.511 315.427L319.235 303.822Z" fill="#D85F2C"/>
<path d="M578.781 363.992L594.919 346.669L609.328 347.49L613.403 338.402L620.331 315.484L620.739 286.638L613.811 261.744L601.177 238.826L595.878 231.713L595.036 239.416L575.548 223.191L571.782 218.963L569.999 204.936L567.026 200.708L563.062 197.441L553.945 193.022L551.17 184.374L545.027 182.453L547.405 191.292L556.323 197.826L562.864 201.285L566.035 204.743V216.657L521.041 188.326L520.761 185.609L545.145 182.348L522.302 172.972L479.278 167.401L433.872 176.641L397.572 180.147L363.483 178.225L355.556 176.304L374.186 186.296L399.158 188.602L348.421 200.9L327.016 212.814L316.71 225.881L342.079 211.661L385.681 197.441L373.789 209.74L347.232 238.179L321.863 256.242L310.764 265.85L334.944 256.626L312.746 290.062L339.7 269.309L334.547 286.988L332.169 306.972L333.358 318.502L336.926 299.286L344.06 281.991L346.835 280.454L343.268 302.36L337.322 327.725L329.791 344.635L348.024 327.725L353.97 314.274L357.141 322.345L353.97 342.714L348.421 354.628L361.105 338.87L363.88 353.475L366.258 332.337L367.843 328.11L373.789 336.18L375.771 343.482L385.284 351.553L389.159 360.64L377.632 317.052L375.903 290.228L381.09 269.552L382.819 301.405L386.854 325.993L385.701 297.493L391.465 275.699L407.026 249.994L402.992 284.081L407.026 314.257L411.637 290.787L426.623 257.258L442.184 236.023L432.962 255.023L431.81 278.493L457.17 233.229L472.731 218.141L470.426 241.611L462.357 273.464L466.391 270.67L480.224 237.7L480.8 263.405L487.716 280.17L488.292 253.905L494.056 223.17V248.876L502.701 275.14L510.77 258.376L505.007 280.17L507.889 277.934L517.687 260.052L525.179 235.464L533.825 247.758L541.318 264.523L543.623 289.111L546.505 287.434L551.116 258.376L559.761 282.964L562.643 298.052L565.525 280.728L570.712 305.317L574.746 317.052L578.204 291.346L580.51 306.434L577.628 327.11L584.544 322.64L583.968 341.64L578.781 363.992Z" fill="#312323"/>
<path d="M372.6 259.317L367.447 260.277L367.051 254.128L367.447 237.987L368.636 225.497L372.997 216.657L380.924 208.779L397.572 202.822L393.212 210.892C393.212 210.892 386.293 217.552 383.303 221.269C381.071 224.043 377.357 230.108 377.357 230.108L376.96 244.713L372.6 259.317Z" fill="#958898"/>
<path d="M397.572 202.822L393.212 210.892L385.086 216.273L377.357 230.108L376.96 244.712L372.6 259.317L379.735 243.175L380.528 229.34L385.681 220.885L391.626 214.351L397.969 212.43L397.572 202.822Z" fill="#312323"/>
<path d="M379.735 243.175L387.906 229.361L401.92 216.86L417.336 203.273L417.896 200.012L397.573 202.822L397.969 212.43L391.627 214.351C387.848 217.839 384.113 222.154 380.528 229.34L379.735 243.175Z" fill="#958898"/>
<path d="M545.027 182.453L520.761 185.609L521.041 188.326L566.035 216.657V204.743L562.864 201.284L547.405 191.292L545.027 182.453Z" fill="#958898"/>
<path d="M551.171 184.374L553.945 193.022L567.026 200.708L569.999 204.936L571.783 218.963C573.005 220.741 579.864 227.642 585.506 233.437L595.036 239.416L595.879 231.713L586.908 209.795L577.658 194.305L564.485 185.065L551.171 184.374Z" fill="#958898"/>
<path d="M217.218 238.563L226.731 228.956L227.127 248.171L217.218 248.556V238.563Z" fill="#F0D4BD"/>
<path d="M258.554 245.938L261.777 239.008L265.561 238.057L266.402 244.579L265.561 247.568L258.414 247.84L258.554 245.938Z" fill="#F0D4BD"/>
<path d="M291.207 236.427L285.321 244.036L292.328 243.492L291.207 236.427Z" fill="#F0D4BD"/>
<path d="M217.218 248.556C210.41 250.751 207.835 254.587 204.599 258.167L204.038 264.689L211.886 267.407L219.174 261.972L228.143 260.884L243.278 259.797L248.884 272.842L249.445 279.907V286.973L255.05 290.234L264.019 288.06L265.141 276.103L273.549 259.254L286.442 259.797L297.093 262.515L303.82 262.243C309.67 263.673 318.066 246.933 307.891 245.997L297.882 243.367L292.328 243.492L285.321 244.035L265.561 247.568L258.414 247.84L227.127 248.171L217.218 248.556Z" fill="#7A3129"/>
<path d="M215.831 283.144L216.623 289.87L212.065 296.403H221.578L232.677 296.211L237.83 295.635L238.821 290.831L238.424 287.949L225.542 283.337L218.605 282.184L215.831 283.144Z" fill="#392325"/>
<path d="M152.466 94.5712L161.435 102.724L171.525 128.269L192.827 151.096L183.858 178.815L170.965 202.186L176.01 199.468L188.342 182.62L187.782 192.403L173.207 216.317L183.858 209.795L195.069 195.12L193.387 208.164L183.858 238.601L209.083 213.056V239.688L210.479 252.399L217.218 248.556V238.563L226.731 228.955L227.127 248.171L258.414 247.84L258.554 245.938L261.777 239.008L265.561 238.057L266.402 244.579L265.561 247.568L285.321 244.036L291.207 236.427L292.328 243.492L297.882 243.367L301.297 233.709L307.744 227.73L316.433 210.338L318.675 217.403L318.955 188.054L325.121 197.837V183.978L329.326 189.685L336.053 180.173L338.753 171.908L341.296 158.348L345.979 155.449L345.302 147.291L347.544 133.431L351.748 130.986L348.577 114.844L356.477 120.953L337.51 77.7651L347.828 83.2727L324.116 48.3836L308.024 34.7846L297.653 22.0121H291.767L280.556 14.1312L270.185 12.229L259.815 5.16334L239.074 1.90233L212.447 0L184.979 1.90233L168.162 9.51143L148.542 19.0229L121.354 20.9251L115.188 37.2304L95.2876 41.5784L88.2805 66.8516L78.4705 82.3415L73.4253 93.2118L72.0239 106.256L72.3042 115.767L73.1451 131.801L77.0691 141.856L79.3113 147.019L81.8339 150.552L80.7128 161.694L82.3945 170.933L87.4396 179.63L89.1213 155.987L95.2876 173.651L99.8884 140.946V190.523L109.798 162.468L103.696 217.675L113.506 189.413L115.347 244.712L121.689 263.928L128.032 210.892L138.734 263.16L146.265 278.532L141.112 247.018L139.527 223.19L151.815 263.928L158.553 282.76L160.535 257.395L164.102 273.152L168.162 241.318L177.976 278.532L182.732 286.603L185.507 266.234L186.498 253.167L193.038 262.775L197.597 285.642L204.038 264.689L204.599 258.167L210.479 252.399C219.066 228.281 193.559 244.313 177.131 248.927L168.162 234.252L153.587 222.839L136.209 204.359L121.634 195.663L131.725 175.553L135.088 162.509L123.877 143.486L126.05 120.193L139.527 161.315L147.981 171.749L141.815 157.618L139.012 131.529L139.573 98.9189L145.739 120.116L162.556 138.051L152.466 94.5712Z" fill="#7999D6"/>
<path d="M272.117 290.831L273.306 294.866H289.161L297.089 294.481L299.665 293.713L296.296 289.293L293.522 287.372L293.72 284.105L294.512 280.454L285.594 283.528L273.702 286.987L272.117 290.831Z" fill="#392325"/>
<path d="M137.209 383.432L131.985 357.934L137.611 349.205L149.663 339.693L168.442 326.649L172.927 319.855L184.419 314.964L181.335 325.562L178.813 328.28L172.647 332.628L160.594 341.595L156.39 350.835V356.542L164.799 374.75L152.188 380.945L137.209 383.432Z" fill="#D85F2C"/>
<path d="M183.129 373.844L164.798 374.75L152.188 380.945L137.208 383.432L122.879 394.597L114.158 406.895L109.402 417.656L107.816 429.185L109.005 441.868L117.726 451.86L123.671 459.931L127.635 435.335L140.716 461.084V452.245L141.509 435.719L146.265 426.495L153.796 412.275L162.121 403.436L178.372 389.601L185.111 381.146L183.129 373.844Z" fill="#5A3774"/>
<path d="M88.1954 386.142L82.646 391.714L79.2767 398.44L78.8804 408.432L84.2315 415.926L89.9791 417.079L96.7176 413.236L101.871 403.052L100.88 392.483L98.1049 387.103L92.952 384.797L88.1954 386.142Z" fill="#4E393B"/>
<path d="M347.232 364.908L334.091 365.782L329.046 369.858L330.167 376.38L341.659 383.446L360.998 392.957L373.611 403.555L380.618 414.697L385.663 423.937C387.508 441.402 406.176 420.12 385.663 423.937C378.941 411.323 395.194 451.755 395.194 438.025L403.122 429.954L405.5 415.35L403.568 407.58L386.854 396.963L380.514 383.551L370.024 374.036L347.232 364.908Z" fill="#5A3774"/>
<path d="M273.969 458.993L266.121 461.847L260.796 466.738L255.611 475.299L249.725 486.169L246.641 493.506L252.247 502.202L262.337 513.48L272.988 522.72L275.231 523.127L279.715 518.372L290.366 507.366L298.074 499.485L301.017 494.05L291.487 473.125L286.162 463.477L273.409 458.586L273.969 458.993Z" fill="#332022"/>
<path d="M268.504 463.341L261.777 469.32L257.293 479.103L258.414 486.984L262.618 494.865L271.027 498.126H281.678L290.086 490.789L290.927 484.538C291.356 481.187 289.692 476.612 288.264 473.26L283.499 465.244L275.511 462.254L268.504 463.341Z" fill="#867A78"/>
<path d="M271.027 498.126H281.677L279.435 504.105L280.276 508.181L277.473 513.072H269.905L268.224 507.637L269.065 504.648L266.963 495.952L271.027 498.126Z" fill="#867A78"/>
<path d="M272.988 522.72C274.892 527.097 265.871 503.886 272.711 549.861L271.126 587.525L270.333 615.195L271.126 629.8L268.351 634.796L268.748 645.941L259.234 654.012L250.91 679.377L241.794 717.04L228.713 745.095L214.443 778.147L212.461 784.68L217.614 790.06L230.695 761.237L238.622 736.64L247.343 712.044L258.045 674.765L260.424 663.62L268.351 656.702L275.882 648.247L273.901 640.176L277.864 632.106L275.486 615.58V600.591C275.486 600.591 278.261 577.148 277.864 575.226C277.468 573.305 275.882 551.783 275.882 551.783L272.988 522.72Z" fill="#3E2538"/>
<path d="M127.635 435.335L123.671 459.931L121.074 487.528L112.105 505.463L107.62 525.573L102.575 551.662L88.5607 570.141L79.031 576.119L72.8648 608.186L58.2899 637.536L38.0526 678.224L33.296 705.895L29.3322 752.013L29.7285 769.692L39.6381 771.613L50.3404 762.39L59.8536 748.939L72.1415 723.574L85.2222 709.354L96.3209 690.522L105.438 674.765L115.744 658.624L119.707 644.02L113.762 621.345L122.879 603.282L128.032 586.756L136.752 552.552L139.923 516.041L146.662 474.919L140.716 461.084L127.635 435.335Z" fill="#482C39"/>
<path d="M61.043 763.543L63.8177 787.37L67.7815 808.123L74.52 829.261L91.5645 859.622L108.213 885.372L114.951 894.595L116.537 904.203L118.915 915.348L120.501 928.031L106.231 915.733L88.3935 893.827L80.8622 880.375L72.1417 866.924L63.0249 850.014L57.4756 836.179L53.1153 821.19L51.9262 810.429L51.1334 798.516L53.5117 778.915L61.043 763.543Z" fill="#3F3027"/>
<path d="M49.5478 869.999L40.8274 879.607L43.6021 893.442L47.5659 913.811L50.3406 927.262L66.1959 951.09L74.9163 967.231H102.663L84.8259 947.247L68.9706 925.341L57.4755 904.972L50.737 884.219L49.5478 869.999Z" fill="#3F3027"/>
<path d="M385.663 423.937V450.569L380.057 466.874L367.725 481.549L359.316 489.702L360.437 504.376L372.77 505.463L379.497 511.442L378.936 520.682L374.452 528.291L362.119 542.422L363.801 572.043L364.361 592.425L370.618 587.14L380.618 582.914L387.905 578.565L417.896 558.999L411.446 506.049L409.86 487.986L397.176 460.7L397.969 435.046L395.194 438.025L392.023 438.793L385.663 423.937Z" fill="#482C39"/>
<path d="M1.18913 812.735L0 832.336L9.51319 828.877L25.3685 821.19C28.3059 820.286 27.6723 817.304 26.954 814.273C7.70485 809.626 5.10094 811.434 1.18913 812.735V812.735Z" fill="#CF5B2A"/>
<path d="M139.131 525.649L137.545 539.485C137.083 543.712 137.215 548.324 136.752 552.552C132.952 565.977 130.305 577.166 127.521 588.62L130.324 619.872L131.203 639.215L120.104 661.89L109.798 685.91L126.446 668.616L151.022 641.329L164.499 620.96L172.427 608.278L177.183 598.67V582.529L170.049 563.697L162.121 541.022L139.131 525.649Z" fill="#3F3027"/>
<path d="M146.662 474.919L139.923 516.041L151.345 510.898L159.473 509.811L162.276 501.931L160.594 492.691L146.662 474.919Z" fill="#D85F2C"/>
<path d="M158.157 528.724L162.121 541.022L185.111 549.861L219.596 562.544L245.361 564.081L246.154 553.705L242.19 529.108L201.363 517.194L167.67 518.732L160.932 522.959L158.157 528.724Z" fill="#6A703D"/>
<path d="M297.287 527.955L294.512 561.007L313.539 557.932L337.322 549.477C350.437 547.247 356.358 544.836 362.119 542.422L374.452 528.291C379.814 522.732 379.892 517.091 379.497 511.442L372.77 505.463L360.437 504.376L334.547 512.583L311.557 522.959L297.287 527.955Z" fill="#6A703D"/>
<path d="M49.5478 869.999L51.1333 798.516L40.8274 879.607L49.5478 869.999Z" fill="#3F3027"/>
<path d="M206.567 70.675L212.747 62.2221C211.524 56.5691 209.908 52.0694 208.685 46.4166L204.763 33.5813L197.669 25.6437L186.387 19.8851L164.782 19.0008L171.724 26.1246C171.724 26.1246 173.182 28.0048 174.458 30.5822C175.734 33.1596 175.864 41.6998 176.356 41.7013L198.336 56.6346L206.567 70.675Z" fill="#958898"/>
<path d="M169.977 42.4966L162.173 35.3948L140.551 26.0208L139.219 22.7475L164.744 19.0995L166.153 29.4112C179.519 26.1662 169.703 37.4837 169.977 42.4966C169.294 28.9419 171.128 21.8368 169.977 42.4966V42.4966Z" fill="#958898"/>
<path d="M164.78 19.0194L171.719 26.1412L175.622 30.3921L176.349 41.7136L198.319 56.6427L206.545 70.6791L194.612 55.9192L170.006 42.3843L169.453 28.6586C169.673 29.7092 174.898 29.0819 166.187 29.3168L164.78 19.0194Z" fill="#312323"/>
<path d="M126.05 120.193L123.877 143.487L135.088 162.509L131.725 175.554L121.635 195.663L136.209 204.359L143.497 212.512L153.587 222.839L168.162 234.252L177.131 248.927L194.509 248.384L209.084 239.688V213.056L183.858 238.601L193.388 208.164L195.069 195.12L183.858 209.795L173.207 216.317L187.782 192.403L188.342 182.619L176.01 199.468L170.965 202.186L183.858 178.815L192.827 151.096L171.525 128.269L161.435 102.724L152.466 94.5711L158.632 121.747L162.556 138.052L145.739 120.116L139.573 98.9191L139.012 131.53L141.815 157.618L147.981 171.749L139.527 161.316L133.185 142.484L126.05 120.193Z" fill="#F0D4BD"/>
</svg>
