<svg width="1780" height="968" viewBox="0 0 1780 968" fill="none" xmlns="http://www.w3.org/2000/svg">
<g clip-path="url(#clip0_254:6)">
<path d="M206.841 265.915L207.542 275.436L204.459 287.814L199.414 298.423L193.247 308.08L190.066 311.329L184.418 315.289L172.927 320.186L164.697 323.448L149.103 335.012C149.103 335.012 136.95 339.413 135.761 339.413C134.572 339.413 107.42 346.146 107.42 346.146L93.3482 356.725L80.0694 380.578L73.1327 399.429L65.4032 410.586L65.205 424.628L67.3851 434.63L76.8983 441.171L78.0875 472.525L76.8983 488.298L75.7092 519.076L75.511 531.964L72.1417 537.157L72.5381 547.352L74.52 573.513L73.1327 592.749L65.205 624.68L56.0882 642.762L49.3497 657.381L38.0528 678.925L33.2962 706.625L30.1251 744.519L29.7287 770.488L29.3323 791.455L27.739 800.872L18.7699 804.409L8.11908 808.761L1.18916 813.576L0 833.196L8.11908 840.045L17.6488 845.214L16.5276 859.088L15.1262 883.843L14.8459 911.591L11.2022 951.036L10.3613 967.63L31.3827 967.902L74.9164 968.232H102.663H183.922L192.642 957.46L190.264 934.377L211.746 919.208L207.962 883.027L204.879 867.521L197.592 836.781L213.849 838.006H221.38L219.398 852.24L217.614 868.398L216.425 890.327L216.651 897.989L225.938 842.045L250.118 804.343L267.558 760.485L272.315 739.71V726.245L260.82 714.704L261.216 702.778L260.027 692.775L263.595 683.926L273.504 675.463L276.675 673.539L289.36 637.376L302.044 618.14L319.088 608.522L340.889 603.906L333.754 596.981L342.871 574.667L347.628 551.969L349.213 546.968H351.195L362.119 542.983L364.361 593.038L370.618 587.748L380.618 583.516L387.905 579.164L417.896 559.577L423.642 554.001L422.941 513.882L418.58 477.334L421.752 451.558L426.046 418.071L420.571 412.198L389.159 361.013L385.284 351.917L375.771 343.838L367.843 328.449L338.511 315.754L319.236 304.136L303.82 262.515L297.093 262.786L286.442 260.066L273.549 259.522L243.278 260.066L219.174 262.242L211.886 267.683L206.841 265.915Z" fill="#BCA1CC"/>
<path d="M164.697 323.448L184.419 315.289L190.066 311.329L189.471 318.254L186.3 326.333L175.796 334.027L163.112 347.685L164.238 356.911L170.404 370.512L183.129 374.23L164.799 375.137L152.188 381.339L137.209 383.828L132.286 387.923L126.68 372.145L126.4 355.551L138.031 344.261L149.103 335.012L156.53 329.979L164.697 323.448Z" fill="#381F15"/>
<path d="M692.612 331.924L691.245 348.245L688.392 367.232L679.426 383.845L657.826 396.107L650.083 407.182L640.301 425.773L634.596 435.662L627.667 449.111L626.445 464.142L628.483 475.217L629.705 512.004L628.075 529.012L624.407 549.581L622.369 560.261L643.969 570.941L649.675 574.896L671.275 576.479L695.32 550.768L702.656 564.612L737.857 598.196L734.338 632.754C735.782 646.926 741.505 652.972 736.991 667.143C737.863 671.761 759.052 682.317 754.007 679.718L754.822 693.957L748.302 710.571L744.226 723.228L750.747 743.797L757.268 766.739L755.637 770.695L766.234 792.845L791.502 849.014L797.222 874.537L805.291 913.695L813.36 955.09L823.734 968.515L937.498 967.956L912.1 937.03L899.319 907.859L871.29 866.509L857.524 805.503L872.196 799.966L873.826 784.144L873.011 765.948L892.573 750.917L924.362 729.557L939.849 708.989L948 685.255L940.664 660.731L934.958 635.416L920.287 612.474L911.32 595.07L907.245 578.457L888.498 526.244L904.8 500.928L908.875 468.493L893.474 448.278L860.621 431.497L837.567 422.546L815.665 405.764H808.749L796.645 386.745L781.66 367.726L778.053 339.543L752.377 327.281L723.448 326.05L692.612 331.924Z" fill="#C54727" fill-opacity="0.954774"/>
<path d="M700.393 250.252L703.275 274.306C704.702 291.855 704.484 295.84 704.428 301.157L700.105 314.023C726.604 310.746 745.214 312.588 771.286 315.702L771.862 311.786C777.116 313.359 782.238 315.016 789.729 315.142L796.357 308.989L814.801 292.766L831.227 278.782L839.296 265.356L844.483 246.337L851.976 227.317C849.134 209.712 840.606 195.558 831.803 180.328L831.227 207.179L829.498 226.198C827.96 233.471 826.113 240.743 826.04 248.015L817.971 224.52L809.325 198.229L802.409 170.818L797.798 146.764L788 173.615L784.542 189.278L782.237 154.596L754.571 182.566L739.01 201.026L732.381 209.417L734.975 188.719L742.468 169.699C732.465 177.902 724.806 186.484 719.413 195.432L716.531 205.501L717.207 218.067L714.803 228.436L715.379 237.386L709.615 226.198L705.58 210.535L699.241 225.08L698.088 208.298L695.206 198.229L684.255 195.432C680.221 196.364 676.186 198.415 672.152 201.585C670.545 206.62 668.657 211.654 669.27 216.689L668.694 232.352L675.034 239.064L686.561 249.134L695.206 252.49L700.393 250.252Z" fill="#F5CCBA"/>
<path d="M700.105 314.023L731.486 312.441L692.324 313.883L688.722 316.401L685.119 322.694L684.399 328.008L687.425 330.106L692.612 331.924L708.004 329.686L723.728 329.042C745.16 328.119 738.275 326.761 738.049 327.713L752.377 327.28L761.877 332.219L774.792 337.96C778.948 339.978 778.596 339.807 778.052 339.543L784.573 335.785L785.388 329.06L781.313 323.523L771.285 315.701C746.99 313.136 721.836 310.426 700.105 314.023V314.023Z" fill="#3C2B60"/>
<path d="M710.4 451.089L698.988 459L696.951 468.888L699.396 478.382L699.803 481.744L702.045 485.897L706.528 487.282L710.807 486.886L715.698 484.711L718.55 481.546L721.607 476.206L724.256 472.646L725.275 465.329L724.664 459.395L720.181 452.276L716.513 451.287L710.4 451.089Z" fill="#382924"/>
<path d="M638.435 429.539L641.605 435.692L641.893 442.964V452.753L639.875 458.627L637.282 465.619L631.95 471.773L627.916 470.374L626.445 464.142L627.667 449.111L631.662 441.006L638.435 429.539Z" fill="#382924"/>
<path d="M799.652 551.361L792.113 558.877L791.705 569.161L795.577 575.292L801.283 581.027L813.509 581.621L823.29 573.314L823.901 562.436L819.418 553.932L813.713 549.581L800.671 549.976L799.652 551.361Z" fill="#382924"/>
<path d="M875.237 566.678L872.931 589.334L872.213 632.761L864.072 668.145C857.666 694.577 850.946 697.616 837.197 711.842C847.628 712.279 858.058 712.715 868.489 713.152L898.867 705.129L912.412 694.78L921.922 678.558C920.957 664.859 918.263 651.72 917.298 638.022L891.355 595.158L875.237 566.678Z" fill="#382924"/>
<path d="M808.556 433.454L788.387 433.743L775.857 437.796L765.467 449.083L760.272 459.214L756.3 474.554L758.439 493.077L768.829 508.707L791.748 523.468L812.834 524.915L833.92 518.837L847.061 507.26L856.84 489.604L857.451 467.318L851.95 460.661L833.003 454.293L826.28 448.794L808.556 433.454Z" fill="#DB6F29"/>
<path d="M868.69 435.972L878.2 449.397L880.505 461.144C879.16 463.568 879.833 466.272 878.488 468.696L875.606 476.808L879.064 484.639L883.387 496.946L887.422 503.938L888.862 511.49L888.498 526.244L901.254 506.176L904.8 500.928L906.73 487.436L908.875 468.493L893.474 448.278L868.69 435.972Z" fill="#DB6F29"/>
<path d="M791.502 761.597L800.875 756.85L813.917 753.686L824.105 755.664L835.109 759.224L842.445 771.09L846.928 780.188L847.743 789.681L843.668 799.174L836.332 811.041L858.339 810.646C866.025 806.022 863.727 808.709 872.196 799.966L873.826 784.144L873.011 765.948L861.396 747.951L838.981 728.766L824.513 721.844L813.509 727.777L805.766 734.502L797.819 742.413L789.26 753.29L791.502 761.597Z" fill="#D7522B"/>
<path d="M732.815 343.498V359.716C733.404 361.274 736.442 362.508 743.003 363.276L756.045 361.694L757.268 352.992L754.822 347.85L744.634 348.245L732.815 343.498Z" fill="#382924"/>
<path d="M759.305 330.445L762.566 341.422L764.094 352.893L766.539 361.892C770.658 363.462 770.787 363.096 771.837 363.177L773.773 359.518L772.041 352.003L771.124 343.894L775.403 340.73L778.052 339.543L759.305 330.445Z" fill="#382924"/>
<path d="M746.06 390.174L757.879 395.711L770.92 398.48L776.218 397.293L795.78 414.698L801.486 419.444L806.173 416.478C810.158 399.901 808.697 405.979 808.748 405.764H815.665L837.566 422.546L835.109 433.289L834.701 439.617L815.139 427.751L802.505 422.609L784.981 416.675L765.418 414.698L746.06 390.174Z" fill="#768941"/>
<path d="M762.64 76.2805L741.315 97.5375C715.829 95.4533 706.513 105.576 699.817 117.676C672.33 123.941 679.35 138.181 671.575 149.002L668.693 157.393L677.915 149.561C643.647 153.547 665.318 160.356 672.728 176.972C680.544 171.505 693.847 171.364 690.019 154.596C697.34 153.939 711.642 162.316 704.428 142.849L696.359 185.922C696.366 192.688 692.551 194.781 698.088 208.298L699.24 225.08L705.58 210.535L709.615 226.198L715.378 237.386L714.802 228.436L717.207 218.067L716.531 205.501L719.413 195.432L742.467 169.699L734.975 188.719L732.381 209.417L754.571 182.566L782.236 154.596L784.542 189.278L788 173.615L797.798 146.764C799.501 165.165 803.791 182.059 809.325 198.229L826.04 248.015L829.498 226.198C831.757 210.322 831.54 195.419 831.803 180.328L843.619 201.305L851.975 227.317L863.791 254.728L869.843 244.938L873.419 226.811L876.272 241.842L882.792 223.251L884.422 213.362L894.204 237.49L898.279 209.406L893.388 156.798C901.337 167.082 909.111 177.367 912.543 187.651L913.856 202.634C914.834 197.806 915.965 193.424 916.211 186.464C912.346 173.411 902.29 160.358 895.019 147.305L883.2 136.625V128.318L870.158 118.825L866.49 107.354L844.89 95.0918L828.181 91.9274L805.766 80.0608L784.981 85.9941L762.64 76.2805Z" fill="#B85D23"/>
<path d="M672.151 201.585C659.455 195.218 650.662 188.559 647.944 181.447L630.292 174.984L632.383 139.492L632.959 130.542L638.146 132.779L639.875 117.116L650.826 113.201L660.624 95.8593L681.373 91.9436L710.191 79.6368L733.245 71.246L764.657 69.5677L780.219 71.246L797.798 76.5603L812.783 75.1617L826.904 84.3918L828.18 91.9274C816.739 93.9648 810.531 88.1017 805.765 80.0609C801.23 89.0056 793.177 87.7095 784.98 85.9941C774.347 87.9101 769.022 81.2398 762.64 76.2805C757.377 86.7928 748.537 90.9323 741.314 97.5375L699.816 117.676L671.575 149.002L668.693 157.393L677.915 149.561L672.728 176.972L690.018 154.596L704.427 142.849L695.205 198.229L684.255 195.432C680.643 196.59 669.423 203.165 672.151 201.585V201.585Z" fill="#B85D23"/>
<path d="M687.713 89.706L674.169 81.0354L665.812 79.9166L646.215 74.0429L634.112 84.6715L626.043 101.174L621.432 112.641L623.161 117.955L630.654 119.074L639.299 124.109L639.875 117.116L650.826 113.201L660.624 95.8593L681.373 91.9436L687.713 89.706Z" fill="#E34722"/>
<path d="M621.432 112.641L598.731 112.892L584.875 113.683L577.131 116.056H594.248L612.995 117.243L590.173 122.78L573.871 134.647L567.758 146.118L579.577 137.02L592.618 129.505L603.622 125.549H615.441L594.248 140.185L585.282 152.447L574.278 172.62L572.648 182.904L581.207 171.433L591.395 158.776L602.399 150.073L592.21 176.971L588.543 198.726L593.841 191.211L592.618 211.78L595.878 231.953L601.177 239.073L613.811 262.015L620.739 286.934L620.331 315.81L613.403 338.752L609.328 347.85L608.513 352.596L612.588 362.089L610.143 373.56L604.03 385.427L593.433 391.36L581.207 400.458L569.388 406.391L565.72 420.236L564.905 443.969L558.792 457.022L553.494 464.142L568.165 457.022L566.943 476.8L569.796 466.515L574.279 496.182L577.131 517.541L582.837 529.408L586.097 506.466L596.694 538.11L606.882 547.999L599.954 530.595L600.769 507.653L610.55 542.857L618.701 552.746L613.403 525.848L623.999 547.999L628.075 529.012L629.705 512.004L628.482 475.217L626.445 464.142L627.667 449.111L638.434 429.538L650.082 407.182L657.826 396.107L679.426 383.845L688.392 367.232L691.245 348.245L692.612 331.924L684.399 328.008L685.12 322.694L688.722 316.401L692.324 313.883L700.105 314.023L704.428 301.157C707.322 285.561 703.864 267.909 700.393 250.253L695.206 252.49L686.561 249.134L668.694 232.352L669.27 216.689L672.151 201.585L647.944 181.447L635.841 160.749L632.383 139.492C634.695 136.121 643.769 131.513 632.959 130.542L638.146 132.78C640.458 130.825 659.524 137.001 639.299 124.109L630.654 119.074L623.161 117.956L621.432 112.641Z" fill="#B85D23"/>
<path d="M471.578 448.838L491.174 449.397L506.736 444.922L526.332 432.055L544.776 416.392L557.456 397.932L569.388 406.391L581.207 400.458L593.433 391.36L604.029 385.427L610.143 373.56L612.588 362.089L609.328 347.849L594.919 347.027L578.781 364.369L583.968 341.993L584.544 322.973L577.628 327.449L580.51 306.751L578.204 291.647L574.746 317.38L570.712 305.632L565.524 281.019L562.643 298.36L559.761 283.256L551.115 258.643L546.505 287.732L543.623 289.41L541.317 264.796L533.825 248.015L525.179 235.708L517.687 260.321L507.888 278.222L505.007 280.459L510.77 258.643L502.701 275.425L494.056 249.133V223.401L488.292 254.168L487.716 280.459L480.8 263.678L480.224 237.945L466.391 270.95L462.357 273.747L470.426 241.861L472.731 218.367L457.169 233.47L442.184 259.202L431.81 278.781L432.962 255.287L442.184 236.267L436.421 242.98L426.622 257.524L411.637 291.088L407.026 314.583L402.992 284.375L407.026 250.252L391.465 275.984L385.701 297.801L386.854 326.33L382.819 301.716L381.09 269.831L375.903 290.529L377.632 317.38L384.548 343.671L393.194 376.116L403.568 396.814L426.046 418.071L453.135 440.446L471.578 448.838Z" fill="#F5C4AB"/>
<path d="M389.159 361.013L380.514 368.285V383.948L386.854 397.373L403.568 408.002L420.571 412.197L403.568 396.814C403.275 391.143 401.124 384.751 393.194 376.116C393.927 371.658 393.75 366.947 389.159 361.013V361.013Z" fill="#F5C4AB"/>
<path d="M544.776 416.392L545.954 431.508L548.196 450.297L549.418 470.866L530.079 465.06L511.059 463.941L496.074 466.738L459.962 477.195H454.256L455.886 468.493L456.09 458.801L453.135 440.446C460.636 442.258 466.218 445.467 471.578 448.837C477.169 447.425 483.418 447.13 491.175 449.396C494.629 447.344 498.473 445.418 506.736 444.921C511.054 439.097 518.236 435.259 526.333 432.055C530.168 425.712 537.849 421.235 544.776 416.392V416.392Z" fill="#F5C4AB"/>
<path d="M454.256 477.195L446.795 473.451L436.709 483.24L432.098 489.673L434.98 499.463L440.167 503.379L447.948 497.785L456.593 501.141L454.864 516.524L457.169 531.069L460.916 532.187H465.815L469.273 527.433L471.002 516.524L472.155 501.141L477.342 492.47L491.759 489.076L512.788 482.401L528.062 482.122L541.03 484.639L551.116 489.394L563.22 500.862L564.66 505.616L566.101 510.371L569.271 499.463L569.559 490.792L557.456 475.689L549.418 470.866L530.079 465.06L511.059 463.941L496.074 466.738L459.962 477.195L454.256 477.195Z" fill="#CD532E"/>
<path d="M440.167 503.379L447.948 497.785L456.593 501.141L454.864 516.525L457.169 531.069L465.815 532.188L469.273 527.433L472.155 501.141L477.342 492.47L512.788 482.401L528.062 482.122L541.03 484.639L551.116 489.394L563.219 500.862L566.101 510.371L567.288 506.53L568.839 511.35L574.686 530.199L587.468 538.494L608.512 553.141L622.369 560.261L649.675 574.896L671.275 576.479L692.856 582.7L714.157 600.11L727.611 615.888L734.338 632.755L740.224 653.701L740.504 671.384L754.007 679.718L754.822 693.958L744.226 723.228L755.637 770.695L775.721 814.73L791.501 849.014L805.054 914.371L813.359 955.09L823.734 968.516L663.545 969.001L638.177 896.674L644.519 832.042L654.825 798.957L649.672 793.955L639.366 818.192L628.663 835.889L607.259 851.278L595.367 868.975L572.377 878.978L540.27 888.98L497.064 898.213L462.182 908.216L450.291 904.369V886.672V861.281L453.462 855.125L485.173 845.892L495.815 837.325L501.701 824.267L499.459 813.658L478.437 793.527L463.022 778.021L452.669 755.099L447.886 734.496L440.038 725.246C434.286 717.443 427.377 710.28 414.308 706.534C414.308 706.534 404.734 706.957 402.492 706.957C400.25 706.957 388.217 713.634 388.217 713.634L383.281 730.279C383.281 730.279 368.846 738.304 366.043 739.392C363.24 740.48 322.259 758.946 322.259 758.946L312.35 772.026L311.668 805.225L308.865 818.827L309.425 850.927L295.411 852.015L271.307 894.997L248.323 947.227L236.244 967.462L183.922 968.232L192.642 957.46L190.264 934.377L216.425 915.91L216.651 897.989L225.938 842.045L237.433 823.963L250.118 804.342L267.558 760.485L272.315 739.71V726.245L260.82 714.704L261.216 702.777L260.027 692.775L263.595 683.926L273.504 675.463L276.675 673.539L289.359 637.376L302.044 618.14L319.088 608.522L340.889 603.905L360.51 595.826L370.618 587.747L380.618 583.516L387.905 579.163L406.684 565.834L417.896 559.577L436.42 541.138L441.607 533.586L441.896 522.678L440.167 503.379Z" fill="#C3C6DD"/>
<path d="M496.362 515.965L497.515 528.831C503.17 532.333 521.721 529.577 533.825 529.95L537.283 528.831L533.249 508.693L517.111 509.253L496.362 515.965Z" fill="#4D3845"/>
<path d="M441.896 522.678L449.965 525.475L450.541 531.348L445.354 539.18L436.42 541.138L441.607 533.586L441.896 522.678Z" fill="#4D3845"/>
<path d="M566.101 510.371L569.848 527.433L554.574 531.908L560.338 544.214L579.646 574.422L586.85 582.253L587.32 609.309L560.014 606.145L541.267 609.309L534.339 615.243L530.263 625.922L538.822 645.7L549.418 655.589L569.795 669.433L578.354 675.367H584.875L610.142 722.042L615.848 743.402L613.81 758.037L606.067 778.606L600.769 794.032L599.139 805.899L626.037 797.988L642.746 784.143L659.456 735.886L670.052 711.362L671.682 698.704L668.829 688.024L657.01 667.456L644.376 651.633L629.705 639.371L595.878 614.452L598.324 594.278L599.139 585.972L584.875 574.501L575.908 560.261L567.35 547.603L562.867 536.132L566.942 532.572L574.686 530.199L573.161 523.377L568.839 511.35L566.101 510.371Z" fill="#4D3845"/>
<path d="M574.686 530.199L599.75 547.406L595.471 550.372V553.932L600.158 555.712L615.237 577.27L619.516 582.016L634.596 594.081L643.154 601.003L643.561 616.034L637.856 636.602L631.335 639.767L630.316 640.162L644.376 651.633L647.229 644.118L650.082 632.251L651.712 616.429V600.212L635.003 590.323L620.739 578.061L607.697 560.656L604.029 553.932L608.512 553.141L574.686 530.199Z" fill="#4D3845"/>
<path d="M436.42 541.138L425.464 561.481L405.283 584.876L390.148 599.566L376.694 607.183L371.088 631.666L368.285 639.283L374.452 638.739L375.012 647.989L367.164 661.59L336.133 689.697L321.863 709.703L313.935 733.555L310.764 756.638L312.35 772.027L312.789 785.094L311.668 805.225C311.081 810.433 309.966 814.618 308.865 818.827C308.821 817.537 315.685 832.247 315.872 837.733L309.425 850.927L299.177 853.362L283.639 875.41L271.307 894.997L265.701 913.495L248.323 947.227C244.597 953.972 242.004 960.717 236.244 967.462L183.922 968.232L192.642 957.46L190.264 934.377L205.326 923.605L216.425 915.91L229.109 882.055L237.037 880.517L246.55 862.05L252.892 845.892L265.576 828.195L288.567 792.032L295.702 767.41L290.646 761.155L288.124 751.634L287.283 736.944L290.366 728.239L297.934 716.814L302.979 707.02L303.539 691.514L308.585 681.177L316.713 664.311L321.197 661.862L320.917 652.069L324.561 639.284L327.083 627.314L328.204 619.425L338.855 612.624L350.067 608.271L359.316 604.191L369.126 597.934L380.618 583.516L387.905 579.164L384.262 584.876L378.936 592.765L370.247 601.743L356.513 608.816L344.181 613.984L339.416 620.241L334.651 630.034L332.128 640.372L329.886 652.341L331.848 653.157L341.378 648.533L355.392 642.004L359.877 637.923L362.119 629.762L366.043 615.344L368.566 608.271L371.649 605.007L386.223 597.39L393.231 591.133L409.767 574.539L415.934 565.834L417.896 559.577L436.42 541.138Z" fill="#493944"/>
<path d="M628.664 835.889L607.259 851.278L595.367 868.975L572.377 878.977L554.144 907.447L547.668 915.127L544.865 930.361L496.272 952.074L474.074 966.693H508.956L534.324 952.843L542.252 954.382L537.578 967.358H579.621L582.984 949.948L591.393 928.185L600.922 900.437L613.255 878.674L616.618 864.529L628.664 835.889Z" fill="#372720"/>
<path d="M659.456 735.886L642.747 784.144L677.721 839.501L719.203 904.79L732.657 936.346L726.571 968.232L785.632 967.847L792.767 949.765L798.712 932.453L799.505 908.601L803.072 903.599L791.502 849.014L791.181 872.053L779.744 854.735L776.381 851.471L776.941 871.602L770.775 875.41L766.851 873.234L737.141 839.501L700.704 803.049L681.084 778.021L668.751 760.067L659.456 735.886Z" fill="#372720"/>
<path d="M750.594 751.362L738.822 745.921L736.019 754.082L741.064 771.492L747.231 791.079L762.927 809.577L770.214 839.501L774.418 858.544L776.941 871.601L776.38 851.471L772.176 834.061L770.214 820.459L766.29 809.849L759.283 799.512L748.912 787.542L744.148 772.853L740.504 758.707L744.708 757.075L751.715 763.875L755.637 770.695C762.396 762.232 748.081 739.044 744.226 723.228L750.594 751.362Z" fill="#372720"/>
<path d="M701.264 631.666L695.098 630.578L688.371 633.026L685.008 636.835L681.084 641.46L678.841 647.717L679.962 656.966L685.008 663.767L691.734 667.847L699.863 670.023L708.271 668.119L713.316 665.127L717.24 657.782L718.922 650.709L718.081 644.996L713.316 638.467L709.392 635.203L704.347 633.026L702.105 632.21L701.264 631.666Z" fill="#493644"/>
<path d="M508.989 823.723L507.307 789.447L511.231 780.742L525.245 772.037L544.865 758.435L557.758 751.362L567.288 739.936L577.378 727.423L587.469 714.909L590.271 709.468L593.635 710.012L597.559 720.894L603.725 733.407L604.846 736.128L599.241 732.863L590.832 733.407L586.347 742.112L576.818 755.17L562.243 768.228L546.547 781.285L537.017 788.358L525.806 795.975L520.2 799.24L515.716 813.386L508.989 823.723Z" fill="#CD532E"/>
<path d="M649.672 793.955L628.663 835.889L613.254 878.674C610.299 886.861 609.944 914.762 610.43 912.833L615.979 938.224L623.907 968.232H726.57L732.656 936.346C722.826 899.161 676.051 839.985 649.672 793.955V793.955Z" fill="#C24626"/>
<path d="M378.144 733.061L388.217 713.634L397.891 708.584L402.205 706.817L414.309 706.534C424.736 709.852 433.826 715.281 440.038 725.247L442.281 739.801L441.72 748.914L440.88 755.035C439.308 759.192 436.193 760.356 433.172 761.699L425.184 752.858L417.196 740.889L402.901 729.327L394.913 727.831L387.625 729.463L378.144 733.061Z" fill="#574A2F"/>
<path d="M387.625 729.463L393.511 720.486L397.155 716.133L404.863 714.909L412.01 715.045L418.737 716.949L424.763 722.526L429.528 727.831L430.789 732.727L431.209 742.385L430.649 749.049L425.184 752.858L419.858 744.833L417.195 740.889L402.901 729.327L387.625 729.463Z" fill="#4D4128"/>
<path d="M508.956 966.693L534.324 952.843L542.252 954.382L537.578 967.358L508.956 966.693Z" fill="#48346A"/>
<path d="M450.291 904.369L438.357 913.495L429.948 928.729L423.782 937.978L416.789 947.474L410.13 959.417L405.283 967.63L474.074 966.693L496.272 952.074L544.865 930.361L547.668 915.127L554.144 907.447L572.377 878.978L540.27 888.98L497.064 898.213L462.183 908.216L450.291 904.369Z" fill="#48346A"/>
<path d="M450.129 888.74L435.834 899.077L429.387 909.414L422.941 920.84L416.214 929.817L415.653 934.17L410.889 940.426L404.722 950.22L399.958 955.66L396.594 963.549L394.072 967.358L405.283 967.63L416.789 947.474L423.782 937.978L429.948 928.729L438.357 913.495L450.291 904.368L450.129 888.74Z" fill="#372720"/>
<path d="M485.445 803.593L444.517 834.088L436.675 843.854C435.507 850.23 434.149 856.566 432.751 862.896L414.813 873.234L396.314 901.525L392.951 911.319L393.511 923.832L383.421 943.419L375.573 955.388L365.862 967.462L394.072 967.357L415.654 934.169L431.661 906.677L435.834 899.077L450.129 888.739L450.291 861.28L453.462 855.125L485.173 845.891L495.815 837.324L501.701 824.267L499.459 813.657L485.445 803.593Z" fill="#48346A"/>
<path d="M436.675 843.854C437.947 837.933 437.621 836.148 440.879 825.083L454.894 814.746L472.271 802.777L469.749 791.895L459.659 782.918L453.492 766.596L450.129 744.833L440.778 731.054L440.039 725.246L447.887 734.496L452.67 755.099L463.022 778.021L483.203 798.016L499.459 813.657L485.445 803.593L436.675 843.854Z" fill="#372720"/>
<path d="M440.879 825.083L435.03 813.384L434.634 800.688L430.868 791.07L425.913 783.76L422.742 766.256L433.171 761.699C435.69 760.055 438 758.108 440.879 755.034L442.28 739.801L440.778 731.054L450.128 744.833L452.669 755.099L453.492 766.596L459.658 782.918L469.748 791.895L472.271 802.777L440.879 825.083Z" fill="#48346A"/>
<path d="M236.244 967.462L248.323 947.227C253.127 935.77 257.645 924.251 265.701 913.495L275.511 931.721C283.12 940.064 286.91 948.406 292.608 956.749L297.373 961.373L314.19 962.461L333.53 963.277L347.264 967.63L236.244 967.462Z" fill="#48346A"/>
<path d="M271.307 894.997L265.701 913.495L275.511 931.721C282.797 941.613 289.137 954.972 297.374 961.373L333.53 963.277L347.264 967.63L365.862 967.463C376.175 955.612 379.23 950.004 383.421 943.419L307.593 948.612L281.432 910.14L271.307 894.997Z" fill="#372720"/>
<path d="M312.795 848.041L299.177 853.362C286.102 867.24 279.39 881.118 271.307 894.997C282.429 913.246 292.898 931.749 307.593 948.612L383.421 943.419C389.841 937.738 392.288 930.954 393.511 923.832C395.156 920.728 395.042 916.599 392.95 911.319L383.302 897.444L375.375 903.599L369.032 912.448L336.925 922.066L312.746 898.598L303.233 883.209L309.179 871.283L311.953 863.974L312.795 848.041Z" fill="#48346A"/>
<path d="M433.172 761.699L417.196 740.889C414.198 737.035 408.425 733.181 402.901 729.327C396.748 726.997 391.927 727.65 387.625 729.463L378.144 733.061L322.259 758.946L312.35 772.027L311.668 805.225L308.865 818.827L309.426 850.927L311.954 863.974L303.233 883.21C305.842 888.417 305.443 894.042 312.746 898.598C319.401 907.33 325.909 916.157 336.926 922.066C348.922 920.952 359.267 917.169 369.033 912.448L383.302 897.444L394.401 884.364L399.951 869.36L407.482 860.511L410.257 853.586L426.112 843.199L425.319 853.586L414.22 861.281L404.311 870.514L414.813 873.234C421.467 871.261 428.918 871.028 432.751 862.897C433.875 857.98 433.556 864.261 436.675 843.854L440.879 825.084L432.652 816.654L424.526 815.692L415.608 820.309L403.914 823.386L393.212 827.426L376.762 826.079L409.067 819.924L421.157 813.384L430.472 810.306L434.634 800.688L430.868 791.07L374.978 804.535L362.294 798.187L374.582 799.726L416.995 787.8L425.913 783.76L422.742 766.256L433.172 761.699Z" fill="#4D2F75"/>
<path d="M383.302 897.444L394.401 884.363L396.383 877.823L399.95 869.36L407.482 860.511L410.256 853.586L426.112 843.199L425.319 853.586L414.22 861.281L404.311 870.514L414.813 873.234L396.314 901.525L392.95 911.318L383.302 897.444Z" fill="#372720"/>
<path d="M351.988 773.565L374.978 763.178L386.87 758.562L396.779 760.485C395.944 755.604 399.234 753.927 400.743 750.867L409.86 760.87C406.258 763.501 402.428 765.848 395.194 763.948C390.288 765.019 385.875 766.787 378.942 767.41L369.429 770.872L351.988 773.565Z" fill="#372720"/>
<path d="M362.294 798.187L374.582 799.726L397.969 792.416L416.995 787.8L425.913 783.76L430.868 791.07L419.968 794.725L401.536 799.149L374.978 804.535L362.294 798.187Z" fill="#2B1A24"/>
<path d="M376.762 826.079L393.212 827.426L403.914 823.386L415.607 820.308L424.526 815.692L432.652 816.654L440.879 825.083L435.03 813.383L434.634 800.688L430.472 810.306L421.157 813.383L412.238 818L409.067 819.924L393.509 822.713L376.762 826.079Z" fill="#2B1A24"/>
<path d="M546.216 436.554L544.776 416.392L557.456 397.932L567.008 404.789L561.542 409.005L558.319 427.504L555.936 415.942L551.312 419.343L546.216 436.554Z" fill="#312323"/>
<path d="M303.82 262.514L314.827 290.651L319.236 304.136L338.511 315.753L348.619 332.681L369.627 344.992L372.91 346.165L375.433 350.382L375.853 356.231L374.592 362.215L374.031 370.649L380.514 383.948L370.024 374.423L347.232 365.286L339.136 365.752L340.958 349.974L340.537 336.644L330.782 331.142L317.503 314.984L308.188 290.747L303.035 275.55L297.093 262.786L303.82 262.514Z" fill="#381F15"/>
<path d="M319.235 304.136L324.561 316.105L329.326 325.355L346.24 337.778L347.727 350.185L347.231 365.286L359.916 370.383L366.456 372.884L370.023 374.423V358.649L369.627 344.992L361.105 339.221L348.619 332.681L338.511 315.753L319.235 304.136Z" fill="#D85F2C"/>
<path d="M578.781 364.369L594.919 347.027L609.328 347.849L613.403 338.752L620.332 315.81L620.739 286.934L613.811 262.015L601.177 239.073L595.878 231.953L595.036 239.663L575.548 223.421L571.782 219.19L569.999 205.148L567.026 200.916L563.062 197.646L553.945 193.221L551.17 184.565L545.027 182.642L547.405 191.49L556.323 198.03L562.864 201.493L566.035 204.955V216.881L521.041 188.521L520.761 185.801L545.145 182.536L522.302 173.151L479.278 167.574L433.872 176.823L397.572 180.333L363.483 178.41L355.556 176.486L374.186 186.489L399.158 188.797L348.421 201.108L327.016 213.034L316.71 226.115L342.079 211.88L385.681 197.646L373.789 209.956L347.232 238.425L321.863 256.507L310.764 266.125L334.944 256.892L312.746 290.362L339.7 269.587L334.547 287.284L332.169 307.29L333.358 318.831L336.926 299.595L344.06 282.283L346.835 280.744L343.268 302.673L337.322 328.064L329.791 344.992L348.024 328.064L353.97 314.599L357.141 322.678L353.97 343.068L348.421 354.994L361.105 339.221L363.88 353.84L366.258 332.681L367.843 328.449L373.789 336.528L375.771 343.838L385.284 351.917L389.159 361.013L377.632 317.38L375.903 290.529L381.09 269.831L382.819 301.716L386.854 326.33L385.701 297.801L391.465 275.984L407.026 250.252L402.992 284.375L407.026 314.583L411.637 291.088L426.623 257.524L442.184 236.267L432.963 255.287L431.81 278.781L457.17 233.47L472.731 218.367L470.426 241.861L462.357 273.747L466.391 270.95L480.224 237.945L480.8 263.678L487.716 280.459L488.292 254.168L494.056 223.401V249.133L502.701 275.425L510.77 258.643L505.007 280.459L507.889 278.222L517.687 260.321L525.179 235.708L533.825 248.015L541.318 264.796L543.623 289.41L546.505 287.732L551.116 258.643L559.761 283.256L562.643 298.36L565.525 281.019L570.712 305.632L574.746 317.38L578.204 291.647L580.51 306.751L577.628 327.449L584.544 322.973L583.968 341.993L578.781 364.369Z" fill="#312323"/>
<path d="M372.6 259.585L367.447 260.547L367.051 254.391L367.447 238.233L368.636 225.73L372.997 216.881L380.924 208.995L397.572 203.032L393.212 211.111C393.212 211.111 386.293 217.777 383.303 221.498C381.071 224.274 377.357 230.346 377.357 230.346L376.96 244.966L372.6 259.585Z" fill="#958898"/>
<path d="M397.572 203.032L393.212 211.111L385.086 216.497L377.357 230.346L376.96 244.966L372.6 259.585L379.735 243.427L380.528 229.577L385.681 221.113L391.626 214.573L397.969 212.649L397.572 203.032Z" fill="#312323"/>
<path d="M379.735 243.427L387.906 229.598L401.92 217.085L417.336 203.483L417.896 200.218L397.573 203.032L397.969 212.649L391.627 214.573C387.848 218.064 384.113 222.383 380.528 229.577L379.735 243.427Z" fill="#958898"/>
<path d="M545.027 182.642L520.761 185.8L521.041 188.521L566.035 216.881V204.955L562.864 201.493L547.405 191.49L545.027 182.642Z" fill="#958898"/>
<path d="M551.171 184.565L553.945 193.221L567.026 200.916L569.999 205.148L571.783 219.19C573.005 220.97 579.864 227.877 585.506 233.679L595.036 239.663L595.879 231.953L586.908 210.012L577.658 194.506L564.485 185.256L551.171 184.565Z" fill="#958898"/>
<path d="M217.218 238.81L226.731 229.192L227.127 248.428L217.218 248.813V238.81Z" fill="#F0D4BD"/>
<path d="M258.554 246.192L261.777 239.255L265.561 238.303L266.402 244.832L265.561 247.825L258.414 248.096L258.554 246.192Z" fill="#F0D4BD"/>
<path d="M291.207 236.671L285.321 244.288L292.328 243.744L291.207 236.671Z" fill="#F0D4BD"/>
<path d="M217.218 248.813C210.41 251.01 207.835 254.85 204.599 258.434L204.038 264.963L211.886 267.683L219.174 262.242L228.143 261.154L243.278 260.066L248.884 273.124L249.445 280.197V287.27L255.05 290.534L264.019 288.358L265.141 276.388L273.549 259.522L286.442 260.066L297.093 262.786L303.82 262.514C309.67 263.946 318.066 247.188 307.891 246.252L297.882 243.619L292.328 243.744L285.321 244.288L265.561 247.824L258.414 248.096L227.127 248.428L217.218 248.813Z" fill="#7A3129"/>
<path d="M215.831 283.437L216.623 290.17L212.065 296.71H221.578L232.677 296.518L237.83 295.941L238.821 291.132L238.424 288.246L225.542 283.63L218.605 282.476L215.831 283.437Z" fill="#392325"/>
<path d="M152.466 94.669L161.435 102.83L171.525 128.401L192.827 151.252L183.858 179L170.965 202.395L176.01 199.675L188.342 182.808L187.782 192.602L173.207 216.541L183.858 210.012L195.069 195.322L193.387 208.38L183.858 238.848L209.083 213.276V239.936L210.479 252.66L217.218 248.813V238.81L226.731 229.192L227.127 248.428L258.414 248.096L258.554 246.192L261.777 239.255L265.561 238.303L266.402 244.832L265.561 247.824L285.321 244.288L291.207 236.671L292.328 243.744L297.882 243.619L301.297 233.95L307.744 227.966L316.433 210.555L318.675 217.628L318.955 188.249L325.121 198.042V184.168L329.326 189.881L336.053 180.359L338.753 172.086L341.296 158.511L345.979 155.61L345.302 147.443L347.544 133.569L351.748 131.121L348.577 114.963L356.477 121.078L337.51 77.8455L347.828 83.3589L324.116 48.4336L308.024 34.8205L297.653 22.0348H291.767L280.556 14.1458L270.185 12.2416L259.815 5.16868L239.074 1.9043L212.447 0L184.979 1.9043L168.162 9.52127L148.542 19.0425L121.354 20.9467L115.188 37.2689L95.2876 41.6214L88.2805 66.9207L78.4705 82.4267L73.4253 93.3082L72.0239 106.366L72.3042 115.887L73.1451 131.937L77.0691 142.002L79.3113 147.171L81.8339 150.708L80.7128 161.861L82.3945 171.11L87.4396 179.815L89.1213 156.148L95.2876 173.831L99.8884 141.092V190.72L109.798 162.636L103.696 217.9L113.506 189.609L115.347 244.965L121.689 264.201L128.032 211.11L138.734 263.432L146.265 278.82L141.112 247.274L139.527 223.421L151.815 264.201L158.553 283.052L160.535 257.661L164.102 273.434L168.162 241.567L177.976 278.82L182.732 286.899L185.507 266.509L186.498 253.429L193.038 263.047L197.597 285.938L204.038 264.962L204.599 258.434L210.479 252.66C219.066 228.517 193.559 244.566 177.131 249.184L168.162 234.494L153.587 223.069L136.209 204.571L121.634 195.866L131.725 175.735L135.088 162.677L123.877 143.635L126.05 120.317L139.527 161.482L147.981 171.927L141.815 157.781L139.012 131.665L139.573 99.0212L145.739 120.24L162.556 138.194L152.466 94.669Z" fill="#7999D6"/>
<path d="M272.117 291.132L273.306 295.171H289.161L297.089 294.786L299.665 294.017L296.296 289.592L293.522 287.669L293.72 284.399L294.512 280.744L285.594 283.822L273.702 287.284L272.117 291.132Z" fill="#392325"/>
<path d="M137.209 383.828L131.985 358.304L137.611 349.566L149.663 340.045L168.442 326.987L172.927 320.186L184.419 315.289L181.335 325.899L178.813 328.619L172.647 332.972L160.594 341.949L156.39 351.198V356.911L164.799 375.137L152.188 381.339L137.209 383.828Z" fill="#D85F2C"/>
<path d="M183.129 374.23L164.798 375.137L152.188 381.339L137.208 383.828L122.879 395.005L114.158 407.316L109.402 418.088L107.816 429.629L109.005 442.325L117.726 452.328L123.671 460.407L127.635 435.785L140.716 461.561V452.712L141.509 436.169L146.265 426.936L153.796 412.702L162.121 403.853L178.372 390.003L185.111 381.54L183.129 374.23Z" fill="#5A3774"/>
<path d="M88.1954 386.541L82.646 392.119L79.2767 398.852L78.8804 408.855L84.2315 416.356L89.9791 417.511L96.7176 413.664L101.871 403.469L100.88 392.889L98.1049 387.503L92.952 385.195L88.1954 386.541Z" fill="#4E393B"/>
<path d="M347.232 365.285L334.091 366.16L329.046 370.24L330.167 376.769L341.659 383.842L360.998 393.363L373.611 403.973L380.618 415.126L385.663 424.375C387.508 441.859 406.176 420.554 385.663 424.375C378.941 411.748 395.194 452.222 395.194 438.478L403.122 430.399L405.5 415.779L403.568 408.002L386.854 397.373L380.514 383.948L370.024 374.422L347.232 365.285Z" fill="#5A3774"/>
<path d="M273.969 459.468L266.121 462.324L260.796 467.221L255.611 475.79L249.725 486.672L246.641 494.017L252.247 502.722L262.337 514.011L272.988 523.26L275.231 523.668L279.715 518.908L290.366 507.89L298.074 500.001L301.017 494.56L291.487 473.614L286.162 463.956L273.409 459.06L273.969 459.468Z" fill="#332022"/>
<path d="M268.504 463.821L261.777 469.805L257.293 479.599L258.414 487.488L262.618 495.377L271.027 498.641H281.678L290.086 491.296L290.927 485.039C291.356 481.684 289.692 477.105 288.264 473.75L283.499 465.725L275.511 462.732L268.504 463.821Z" fill="#867A78"/>
<path d="M271.027 498.641H281.677L279.435 504.626L280.276 508.706L277.473 513.603H269.905L268.224 508.162L269.065 505.17L266.963 496.465L271.027 498.641Z" fill="#867A78"/>
<path d="M272.988 523.26C274.892 527.642 265.871 504.407 272.711 550.43L271.126 588.132L270.333 615.832L271.126 630.451L268.351 635.452L268.748 646.609L259.234 654.688L250.91 680.079L241.794 717.781L228.713 745.866L214.443 778.951L212.461 785.491L217.614 790.877L230.695 762.024L238.622 737.402L247.343 712.78L258.045 675.463L260.424 664.306L268.351 657.381L275.882 648.917L273.901 640.838L277.864 632.759L275.486 616.216V601.212C275.486 601.212 278.261 577.745 277.864 575.821C277.468 573.898 275.882 552.354 275.882 552.354L272.988 523.26Z" fill="#3E2538"/>
<path d="M127.635 435.785L123.671 460.407L121.074 488.032L112.105 505.986L107.62 526.117L102.575 552.232L88.5607 570.731L79.031 576.715L72.8648 608.815L58.2899 638.195L38.0526 678.925L33.296 706.625L29.3322 752.791L29.7285 770.488L39.6381 772.411L50.3404 763.178L59.8536 749.713L72.1415 724.322L85.2222 710.087L96.3209 691.236L105.438 675.463L115.744 659.305L119.707 644.686L113.762 621.987L122.879 603.906L128.031 587.363L136.752 553.123L139.923 516.575L146.661 475.411L140.716 461.561L127.635 435.785Z" fill="#482C39"/>
<path d="M61.043 764.332L63.8177 788.185L67.7815 808.959L74.52 830.118L91.5645 860.511L108.213 886.287L114.951 895.52L116.537 905.138L118.915 916.295L120.501 928.99L106.231 916.68L88.3935 894.751L80.8622 881.286L72.1417 867.821L63.0249 850.893L57.4756 837.043L53.1153 822.039L51.9262 811.267L51.1334 799.341L53.5117 779.721L61.043 764.332Z" fill="#3F3027"/>
<path d="M49.5478 870.898L40.8274 880.516L43.6021 894.366L47.5659 914.756L50.3406 928.221L66.1959 952.074L74.9163 968.232H102.663L84.8259 948.226L68.9706 926.298L57.4755 905.908L50.737 885.133L49.5478 870.898Z" fill="#3F3027"/>
<path d="M385.663 424.376V451.035L380.057 467.357L367.725 482.047L359.316 490.208L360.437 504.898L372.77 505.986L379.497 511.971L378.936 521.22L374.452 528.837L362.119 542.983L363.801 572.635L364.361 593.037L370.618 587.747L380.618 583.516L387.905 579.164L417.896 559.577L411.446 506.572L409.86 488.491L397.176 461.176L397.969 435.496L395.194 438.478L392.023 439.247L385.663 424.376Z" fill="#482C39"/>
<path d="M1.18913 813.576L0 833.196L9.51319 829.734L25.3685 822.04C28.3059 821.134 27.6723 818.149 26.954 815.115C7.70485 810.463 5.10094 812.273 1.18913 813.576V813.576Z" fill="#CF5B2A"/>
<path d="M139.131 526.193L137.545 540.043C137.083 544.275 137.215 548.891 136.752 553.123C132.952 566.562 130.305 577.763 127.521 589.229L130.324 620.513L131.203 639.876L120.104 662.575L109.798 686.619L126.446 669.307L151.022 641.992L164.499 621.603L172.427 608.907L177.183 599.289V583.131L170.049 564.28L162.121 541.582L139.131 526.193Z" fill="#3F3027"/>
<path d="M146.662 475.41L139.923 516.575L151.345 511.427L159.473 510.339L162.276 502.45L160.594 493.2L146.662 475.41Z" fill="#D85F2C"/>
<path d="M158.157 529.271L162.121 541.582L185.111 550.43L219.596 563.126L245.361 564.664L246.154 554.277L242.19 529.655L201.363 517.729L167.67 519.268L160.932 523.5L158.157 529.271Z" fill="#6A703D"/>
<path d="M297.287 528.501L294.512 561.587L313.539 558.509L337.322 550.045C350.437 547.813 356.358 545.4 362.119 542.983L374.452 528.837C379.814 523.273 379.892 517.625 379.497 511.971L372.77 505.986L360.437 504.898L334.547 513.113L311.557 523.5L297.287 528.501Z" fill="#6A703D"/>
<path d="M49.5478 870.899L51.1333 799.341L40.8274 880.516L49.5478 870.899Z" fill="#3F3027"/>
<path d="M206.565 70.7416L212.748 62.2792C211.525 56.6212 209.91 52.1176 208.688 46.4597L204.767 33.6133L197.674 25.6699L186.39 19.9086L164.782 19.0286L171.724 26.1574C171.724 26.1574 173.182 28.0391 174.458 30.6186C175.734 33.1981 175.862 41.7464 176.354 41.7478L198.336 56.6899L206.565 70.7416Z" fill="#958898"/>
<path d="M169.977 42.5357L162.173 35.4297L140.551 26.0527L139.219 22.7769L164.746 19.1197L166.154 29.4399C179.522 26.189 169.703 37.5186 169.977 42.5357C169.296 28.9695 171.131 21.8579 169.977 42.5357V42.5357Z" fill="#958898"/>
<path d="M164.78 19.0457L171.719 26.1728L175.622 30.4268L176.348 41.7591L198.319 56.6973L206.545 70.7454L194.612 55.9741L170.003 42.432L169.452 28.6931C169.672 29.7447 174.898 29.1156 166.186 29.3527L164.78 19.0457Z" fill="#312323"/>
<path d="M126.05 120.318L123.877 143.635L135.088 162.677L131.725 175.735L121.635 195.866L136.209 204.571L143.497 212.732L153.587 223.069L168.162 234.495L177.131 249.185L194.509 248.641L209.084 239.936V213.276L183.858 238.848L193.388 208.38L195.069 195.322L183.858 210.012L173.207 216.541L187.782 192.602L188.342 182.808L176.01 199.675L170.965 202.395L183.858 179L192.827 151.252L171.525 128.401L161.435 102.83L152.466 94.6689L158.632 121.872L162.556 138.195L145.739 120.24L139.573 99.0215L139.012 131.666L141.815 157.781L147.981 171.927L139.527 161.482L133.185 142.631L126.05 120.318Z" fill="#F0D4BD"/>
</g>
<defs>
<clipPath id="clip0_254:6">
<rect width="1780" height="968" fill="white"/>
</clipPath>
</defs>
</svg>
